<?xml version="1.0" encoding="utf-8"?>
<!-- Generator: Adobe Illustrator 18.1.1, SVG Export Plug-In . SVG Version: 6.00 Build 0)  -->
<!DOCTYPE svg PUBLIC "-//W3C//DTD SVG 1.1//EN" "http://www.w3.org/Graphics/SVG/1.1/DTD/svg11.dtd">
<svg version="1.1" id="Layer_24" xmlns="http://www.w3.org/2000/svg" xmlns:xlink="http://www.w3.org/1999/xlink" x="0px" y="0px"
	 viewBox="-2849.2 7025.3 902.3 383.3" enable-background="new -2849.2 7025.3 902.3 383.3" xml:space="preserve">
<g>
	<g>
		<defs>
			<rect id="SVGID_1_" x="-2849.2" y="7025.3" width="902.3" height="383.3"/>
		</defs>
		<clipPath id="SVGID_2_">
			<use xlink:href="#SVGID_1_"  overflow="visible"/>
		</clipPath>
		<g clip-path="url(#SVGID_2_)">
			<rect x="-2849.2" y="7025.3" fill="#F0BB16" width="902.3" height="383.3"/>

				<linearGradient id="SVGID_3_" gradientUnits="userSpaceOnUse" x1="-2016.1639" y1="5747" x2="-3438.3044" y2="5747" gradientTransform="matrix(1 0 0 -1 0 12964)">
				<stop  offset="0" style="stop-color:#FFCF3F"/>
				<stop  offset="1" style="stop-color:#E98F00"/>
			</linearGradient>
			<rect x="-2849.2" y="7025.3" fill="url(#SVGID_3_)" width="902.3" height="383.3"/>
			<path fill="#95B7B7" d="M-2838.3,7301.4l361.3-13c0,0,107.5,9,175.1,0c67.7-9,175.4,7.8,187,6.4c11.7-1.4,166.7,7.6,166.7,7.6
				l-22.9,93c0,0-844.9,12-864.5,0S-2838.3,7301.4-2838.3,7301.4z"/>
			<g>
				<path fill="#F0E7D8" d="M-2559.2,7250.4c-3-1.3-8.7-0.7-8.7-0.7l-17.7-21.6c0,0-9-17.7-20.3-14.4c0,0,4.7-16.2-1.7-23.6
					c0,0,3.1-9.9-5.3-8.5l-9.7-18.6l-19.1,3.1c0,0,2.9-17.1-2.1-25.4c0,0,12.8,7.8,17.1,5.9c4.3-1.9-7.6-8.1-7-11.6
					c0.6-3.6,9.3-5.9,9.5-9.6c0.2-3.7-12.2-5.3-19.2-10s-17.7-0.3-22.3-2s-9-2.8-12.7-0.9s-5.7,5.2-9.5,7.6
					c-3.8,2.3-3.3,9.7-6.6,10.7s-13.3,5.6-12.6,9.6c0.7,4-1,11.7-2,15s-0.7,13.7-0.7,13.7l-6.9,7l-7.1-2.5c0,0,4.8-7.9,4.5-14.7
					c-0.3-6.8-3.4-10.1-3.2-14.1c0.2-4-0.6-15.7,0-19.3c0.6-3.7-0.6-10.8-5.8-13.9c-5.3-3.1-8.1-6.1-12.7-1.3s-13.9,13.1-17.9,16
					c-4,2.9-5.3,7.3-0.3,17.3c0,0-8,10.1-5.4,13.7c2.7,3.6,14.2,0,14.2,0l4.7,17.6c0,0-18.6-2-30.6,4.5c-12,6.5-17.7,21.3-18,32.4
					s1,21.1,14.3,21.8s12.7,5.3,13,9.3s-10,13.3-10.7,21s-4.7,41.2-4.7,41.2s-13,8.5-7.2,11.8c5.7,3.2,7.2,7.2,11.2,7.2
					s6.5,3.5,10,0s-0.5-9.1,3.5-12.3s0.5-9.2-5-9.2l2.7-29.6l21.3,40.9c0,0,23.4,44.4,28.9,43.8s14.5-14.1,15.5-16.6
					c0,0,9,12.9,14,6.2c5-6.7,13.9-26.2,10.5-29.2c-3.5-3-5.5-3-5.5-3l3.6-6l-7.1-6l9-7.3c0,0,13.3,38.2,21.7,37.3
					c8.4-1,23.3-11,25.3-16.2c2-5.3-11.7-7.3-11.8-5s-14.1-25.9-14.1-25.9l7.7-1c0,0,1.1,12,6.4,10.1s8.1,0,8.1,0l12.9,27.1
					c0,0,6.4,1.4,10.1-9.6c3.8-10.9,2.8-14.9,2.8-14.9l10.4,41.5c0,0,19.3-9.3,20.2-11.4c0.8-2.1,16.3-13.6,16.8-18.6
					s-6-7.2-9.7-3.9c-3.8,3.4-7.8,3.9-7.8,3.9l-7-24.1l-2-19.9l-9-27l7.5,0.5c0,0,14,12.5,14,16s-5,9.3-1.3,11.3s8,0.3,10.7,2.7
					s6,5.3,7.3,1s0-8.5,2.3-10.7C-2552.8,7256.4-2556.2,7251.7-2559.2,7250.4z M-2717.4,7337.1l-13.8-23.8l6.9-5.5l13.1,21.3
					L-2717.4,7337.1z M-2651.9,7315.4l-4.7,2.5v-1.2l-11.5-24c0,0,2-2.8,4.5-2.5S-2651.9,7315.4-2651.9,7315.4z M-2592.4,7278.6
					c4,4.2,0,8.8,0,8.8l9.2,26.8l-9.9,6.2l0.6-1l-10.5-33.6L-2592.4,7278.6z"/>
			</g>
			<g>
				<path fill="#77470E" d="M-2782.2,7304.9c0,0-12.9,8.5-7.2,11.8c5.7,3.2,7.2,7.2,11.2,7.2s6.5,3.5,10,0s-0.5-9.1,3.5-12.3
					s0.5-9.2-5-9.2l2.2-24.3c-4-0.4-7.7-1.5-11.3-2.6C-2780.2,7288-2782.2,7304.9-2782.2,7304.9z"/>
				<path fill="#77470E" d="M-2709.2,7267.4c-1,1-2,3-2,5c-9-2-12-11-18-16c-1.6,1.6-1.9,4.4-3.4,6.5c10.6,9,15.6,21.7,25.4,31.5
					c-1-2,1-3,1-4c3,0,6,1,7,0c6-8,3-15-3-22C-2704.2,7266.4-2707.2,7266.4-2709.2,7267.4z"/>
				<path fill="#F0E7D8" d="M-2722.6,7132.7c0-0.1,0-0.3,0-0.4c-0.2,0-0.3,0.1-0.5,0.1C-2722.9,7132.5-2722.7,7132.6-2722.6,7132.7z
					"/>
				<path fill="#F0BB17" d="M-2753.8,7141.2c-0.1,0.1-0.3,0.1-0.4,0.2C-2754,7141.3-2753.9,7141.2-2753.8,7141.2
					c-0.5-2.6-2.6-6.3-0.4-7.8c4-3,10-4,16-6c3-1,7-1,10,1c1.6,1.6,3.3,2.8,5.1,4c0.2,0,0.3-0.1,0.5-0.1c0-2.9,0-5.5,0.2-6.9
					c0.6-3.7-0.6-10.8-5.8-13.9c-5.3-3.1-8.1-6.1-12.7-1.3s-13.9,13.1-17.9,16s-5.3,7.3-0.3,17.3c0,0-0.1,0.1-0.2,0.3
					c1.8,0.4,3.7,0.7,5.2-0.3h-1c0.4-0.1,0.7-0.1,1.1-0.1C-2753.7,7142.7-2753.6,7142-2753.8,7141.2z"/>
				<path fill="#F0E7D8" d="M-2754.2,7143.4c0,0,0.1-0.1,0.1-0.1c-0.4,0-0.7,0.1-1.1,0.1H-2754.2z"/>
				<path fill="#F0E7D8" d="M-2722.6,7132.7c-0.2-0.1-0.4-0.2-0.5-0.3c-10.8,1.6-21.2,3.1-30.7,8.8c0.1,0.8,0.1,1.6-0.3,2.1
					c4.5-0.3,8.2,3.2,11.9,4.1c7.3,0.9,12.1-5.7,19.8-4.5C-2722.3,7140.2-2722.5,7136.3-2722.6,7132.7z"/>
				<path fill="#F1B984" d="M-2719.2,7158.8c-0.3-6.8-3.4-10.1-3.2-14.1c0-0.5,0-1.1,0-1.9c-7.7-1.2-12.5,5.4-19.8,4.5
					c-3.7-0.9-7.4-4.4-11.9-4.1c0,0-0.1,0.1-0.1,0.1c-1.6,1-3.4,0.7-5.2,0.3c-1.3,1.6-7.6,10.2-5.1,13.4c2.7,3.6,14.2,0,14.2,0
					l4.2,15.6c2.7,1.1,5.4,2.3,8,3.7c4.6,2.6,7.4,6.5,9.4,10.8c3.7-3.4,5.7-8,7.8-12.7l-2.7-0.9
					C-2723.6,7173.6-2718.8,7165.6-2719.2,7158.8z"/>
				<path fill="#F1B984" d="M-2723.1,7132.4c-1.8-1.1-3.5-2.4-5.1-4c-3-2-7-2-10-1c-6,2-12,3-16,6c-2.2,1.5-0.1,5.2,0.4,7.8
					C-2744.3,7135.5-2733.8,7133.9-2723.1,7132.4z"/>
				<path fill="#D73C4A" d="M-2624,7125.4c0.2-3.7-12.2-5.3-19.2-10s-17.7-0.3-22.3-2s-9-2.8-12.7-0.9s-5.7,5.2-9.5,7.6
					c-3.8,2.3-3.3,9.7-6.6,10.7s-13.3,5.6-12.6,9.6c0.7,4-1,11.7-2,15c-0.8,2.5-0.8,8.9-0.8,12c7.9,1,16.4-1.7,21.4-5
					c0.2-0.2,0.4-0.4,0.6-0.7c-0.5-0.5-1.1-0.9-1.6-1.3c0.6,0.4,1.1,0.9,1.6,1.3c10-10.3,1.6-33.5,15.4-39.3
					c13.1-6.2,22.6,6.6,29.5,20.1c-0.3-0.6-0.6-1.2-0.9-1.8c0,0,12.8,7.8,17.1,5.9c4.3-1.9-7.6-8.1-7-11.6
					C-2632.8,7131.4-2624.1,7129.1-2624,7125.4z"/>
				<path fill="#CC8850" d="M-2607.5,7190.1c0,0,3.1-9.9-5.3-8.5l-9.7-18.6l-18.3,3c-4.9,5.7-8.7,12-8.4,20.6
					c2.1,3.2,2.5,8.1,6,10.8c-2,0-5-1-7,0c-2,2-4,5-1,8c7,5,12.9,9.9,20.9,12.9c0.4-0.7,0.8-1.3,1.1-1.9c-0.3,0.6-0.7,1.3-1.1,1.9
					c0,0,0.1,0,0.1,0.1c8.9,3.9,17.7-0.2,24.9-7.1C-2604.2,7206.5-2602.7,7195.8-2607.5,7190.1z"/>
				<path fill="#CC8850" d="M-2633,7295.9c4.8-5.4,10.2-11.6,6.8-18.5c-1-2-5-3-9-3c0-9.7,4.7-18.4,5.9-28c-0.2,0-0.4,0-0.6,0
					c-0.9,0.9-1.8,2-2.3,3c0.5-1.1,1.4-2.1,2.3-3c-2.9-0.3-6.3-1.9-6.3-1c-0.1,0.5-0.3,1.1-0.4,1.6c0.1,0.1,0.2,0.3,0.4,0.4v-1v1
					c-0.1-0.1-0.3-0.3-0.4-0.4c-2.9,11.8-9.2,20.8-12.5,31.5c0.4,0.5,0.7,1.1,0.9,1.9c-0.3-0.7-0.6-1.3-0.9-1.9
					c-0.4,1.3-0.8,2.5-1.1,3.9c-0.2,0.9-0.3,1.8-0.4,2.7l2.6-0.3c0,0,0.1,1.2,0.4,2.7c0.5,0.3,0.9,0.6,1.4,0.9
					c-0.4-0.3-0.9-0.6-1.4-0.9c0.7,3.4,2.3,8.7,6,7.4c5.3-1.9,8.1,0,8.1,0L-2633,7295.9z"/>
				<path fill="#F0E7D8" d="M-2629.3,7246.4c0,0,0.1,0,0.1,0v-0.7c0,0,0,0,0,0C-2629.2,7246-2629.3,7246.2-2629.3,7246.4z"/>
				<path fill="#F0E7D8" d="M-2629.2,7245.7v-0.3C-2629.2,7245.5-2629.2,7245.6-2629.2,7245.7
					C-2629.2,7245.8-2629.2,7245.7-2629.2,7245.7z"/>
				<path fill="#F0E7D8" d="M-2655.8,7317.5l-0.8,0.4v-1.2l-11-22.9c-2.9,0.6-5.8,1.8-8.3,3.8c1.8,4.9,6.9,18.2,12.2,27.1
					C-2660.8,7322.4-2657.8,7320.7-2655.8,7317.5z"/>
				<path fill="#F0E7D8" d="M-2641.5,7311.6c0,0.3-0.3,0-0.8-0.6c-2.1,3.5-5,5.7-9.7,4.3c0,0.1,0,0.1,0,0.1l-3.9,2
					c-2,3.3-4.9,4.9-8,7.1c3,5,6.1,8.6,8.8,8.3c8.4-1,23.3-11,25.3-16.2S-2641.3,7309.3-2641.5,7311.6z"/>
				<path fill="#F0E7D8" d="M-2642.3,7311c-2.9-4.2-13.1-24.6-13.4-25.2c-2.9,0.4-5.8,1.8-7.8,4.5c2.7,1.6,10.8,23.3,11.5,25.1
					C-2647.3,7316.7-2644.4,7314.5-2642.3,7311z"/>
				<path fill="#F0E7D8" d="M-2629.3,7246.4c0-0.2,0.1-0.4,0.1-0.6c-0.2,0.2-0.4,0.4-0.7,0.6
					C-2629.7,7246.4-2629.5,7246.4-2629.3,7246.4z"/>
				<path fill="#F0BB17" d="M-2595.7,7237.9l6.6,0.4c1.5-2.9,3.3-5.6,5.1-8.5l-1.5-1.8c0,0-9-17.7-20.3-14.4c0,0,0.3-0.9,0.6-2.4
					c-7.2,6.8-16,10.9-24.9,7.1c0,0-0.1,0-0.1-0.1c-0.7,1.1-1.4,2.2-2.1,3.3c0.8-0.4,1.5-0.8,2.3-1.3c-0.7,0.4-1.5,0.9-2.3,1.3
					c-5.3,8.2-11.7,18-4.1,25.3c0.1-0.5,0.3-1.1,0.4-1.6c0-0.9,3.4,0.7,6.3,1c0.2-0.2,0.4-0.4,0.7-0.6c0-0.1,0-0.2,0-0.4v0.3
					c0.6-0.5,1.3-1,2-1.3c4,10,2,25,10,28c8.2,2.7,19.6-3.6,30.6-6.3l-0.1-1.2L-2595.7,7237.9z"/>
				<path fill="#CC8850" d="M-2559.2,7250.4c-3-1.3-8.7-0.7-8.7-0.7l-16.2-19.9c-1.7,2.9-3.6,5.6-5.1,8.5l0.9,0.1c0,0,14,12.5,14,16
					s-5,9.3-1.3,11.3s8,0.3,10.7,2.7s6,5.3,7.3,1s0-8.5,2.3-10.7C-2552.8,7256.4-2556.2,7251.7-2559.2,7250.4z"/>
				<path fill="#F7D4B7" d="M-2651.2,7239.4c-13.4,3.8-21.4-9.8-32.6-11.8c-0.5,0.2-0.9,0.5-1.4,0.8c0.4-0.3,0.9-0.6,1.4-0.8
					c-0.5-0.1-0.9-0.1-1.4-0.2c-0.6,0-0.8,0.6-0.9,1.6c1,6.5,4.6,12.4,9.4,17c-0.4-1.2-0.8-2.4-1.5-3.5c0.7,1.1,1.1,2.3,1.5,3.5
					c6.8,6.5,16,10.5,23.5,10.5C-2649.2,7255.4-2645.2,7237.4-2651.2,7239.4z"/>
				<path fill="#F0E7D8" d="M-2702.2,7183.4c-0.2,0.2-0.4,0.4-0.7,0.5c2.3,4.3,5.2,7.9,10.7,8.5c7,1,13-7,20-3
					c0.3-1.1,0.3-2.1,0.2-3.1c-0.7-0.4-1.4-0.7-2.2-0.9c0.8,0.2,1.5,0.5,2.2,0.9c-0.3-2.8-1.7-5.4-3.2-6.9
					C-2684.2,7172.4-2695.2,7176.4-2702.2,7183.4z"/>
				<path fill="#F7D4B7" d="M-2682.6,7241.7c-0.2,0-0.4-0.1-0.5-0.3C-2683,7241.6-2682.8,7241.6-2682.6,7241.7
					c0.2-0.1,0.3-0.2,0.5-0.3C-2682.3,7241.5-2682.5,7241.6-2682.6,7241.7c0.6,0.1,1.3-0.2,2-0.2c-2.8-3.7-4.8-7.9-5.5-12.5
					c-0.1,0.7-0.1,1.6-0.1,2.4c0-0.9,0-1.7,0.1-2.4c0-0.2-0.1-0.4-0.1-0.6c0,0.2,0.1,0.4,0.1,0.6c0.1-0.9,0.3-1.6,0.9-1.6
					c0.5,0,0.9,0.1,1.4,0.2c5.3-2.8,12.2-2.8,15.6-8.2c1-7,4-14,1-21c-1-2,3-4,2-6c-2.4-2.4-4.2-4.8-6.8-6.1c0.1,1,0,2.1-0.2,3.1
					c-7-4-13,4-20,3c-5.5-0.6-8.4-4.2-10.7-8.5c-1.2,0.7-2.8,0.7-4.5,0.3c-0.2,0.5-0.4,0.9-0.9,1.2c-14,10-7,26,0,36c1,3-2,7-1,11
					c0.3,1.4,0.6,2.7,0.9,3.9c0.8-0.1,1.5-0.3,2.1-0.9c-0.6,0.6-1.2,0.8-2.1,0.9C-2704.3,7249.2-2694.3,7248.7-2682.6,7241.7z"/>
				<path fill="#D73C4A" d="M-2664.2,7270.4c-3-5-5-8-8-12c-3.1-3.9-3.2-8.3-4.5-12.5c-1.4-1.4-2.8-2.9-4-4.4c-0.7,0-1.4,0.3-2,0.2
					c-11.7,7.1-21.7,7.5-25.6-5.3c-0.5,0.1-1.2,0.1-1.9,0.1c-0.2,0.8-0.4,1.6-0.6,2.4c2.2,2.4,3.3,4.8,3.5,7.3
					c4.6,11.2,10,21.9,16.1,33.3c3,6-4,16,1,22c0.6,1.3,2.8,1.3,5.1,1l8.3-6.8c0,0,0.2,0.7,0.7,1.9c2.6-2,5.4-3.2,8.3-3.8l-0.5-1.1
					c0,0,2-2.8,4.5-2.5c0.1,0,0.2,0,0.3,0.1c2-2.7,4.8-4.1,7.8-4.5c0,0,0,0,0,0l5.1-0.6c0-0.9,0.1-1.8,0.4-2.7
					c0.3-1.3,0.7-2.6,1.1-3.9C-2652.7,7273-2660.5,7275.9-2664.2,7270.4z"/>
				<path fill="#3D738E" d="M-2632.4,7221.7c-10,5.3-24.2,8.7-29.7-4.3c0-1-4,0-6,2c0,0,0,0,0,0c-3.4,5.4-10.3,5.4-15.6,8.2
					c11.2,2,19.2,15.7,32.6,11.8c6-2,2,16-2,17c-7.5,0-16.7-4-23.5-10.5c1.3,4.1,1.4,8.6,4.5,12.5c3,4,5,7,8,12
					c3.6,5.5,11.4,2.6,15.1,8.1c3.4-10.7,9.6-19.7,12.5-31.5C-2644.1,7239.7-2637.7,7229.9-2632.4,7221.7z"/>
				<path fill="#91CECE" d="M-2651.2,7205.4c-3-3-1-6,1-8c2-1,5,0,7,0c-3.5-2.6-3.9-7.6-6-10.8c0,0.3,0,0.5,0,0.8
					c-19.1,1.9-26.4-15.4-38.4-25.7c-0.2,0.2-0.4,0.4-0.6,0.7c-5,3.3-13.5,6-21.4,5c0,1,0,1.7,0,1.7l-2.7,2.7
					c2.7,4.8,5.8,9.7,5,12.4c1.7,0.4,3.3,0.4,4.5-0.3c-1.5-2.7-2.8-5.8-4.3-8.5c1.6,2.7,2.8,5.8,4.3,8.5c0.2-0.1,0.5-0.3,0.7-0.5
					c7-7,18-11,27-4c1.5,1.5,2.9,4,3.2,6.9c2.6,1.4,4.4,3.7,6.8,6.1c1,2-3,4-2,6c3,7,0,14-1,21c0.4-0.6,0.7-1.2,1-2
					c-0.3,0.7-0.6,1.4-1,2c0,0,0,0,0,0c2-2,6-3,6-2c5.6,13,19.7,9.6,29.7,4.3c0.7-1.1,1.5-2.3,2.1-3.3
					C-2638.2,7215.3-2644.2,7210.4-2651.2,7205.4z"/>
				<path fill="#E5881E" d="M-2725.7,7283.6c-0.5-0.5-0.9-1.1-1.2-1.7c-3.7-4.9-8.7-9.3-7.2-15.4c0-1,1-2,1.9-3.2
					c-0.1-0.1-0.2-0.2-0.4-0.3c-0.4,0.6-0.9,1.1-1.6,1.5c0.6-0.4,1.1-0.9,1.6-1.5c-0.2-0.2-0.4-0.3-0.6-0.5c0.2,0.2,0.4,0.3,0.6,0.5
					c0.7-0.9,1.1-2,1.5-3c0-0.1-0.1-0.3-0.1-0.4c0,0.1,0.1,0.3,0.1,0.4c0.5-1.3,1-2.6,1.9-3.4c0.2,0.2,0.5,0.4,0.7,0.6
					c-4.3-5.4-6.5-11.4-12.7-14.7c-8.3,5-17.9,6.9-26.5,3.3c-2.4,4.7-9.3,11.9-9.8,18.1c-0.2,2.2-0.7,6.6-1.2,11.8
					c3.6,1.2,7.3,2.2,11.3,2.6l0.5-5.3l2.9,5.5c0.3,0,0.6,0,0.9,0h-0.9l14.2,27.2c8.1-5.6,17.9-8.8,26.9-12.9
					c-0.2-2.1-1.2-4.2-1.2-6.4C-2724.6,7285.4-2725.1,7284.5-2725.7,7283.6z"/>
				<path fill="#3E8C58" d="M-2710.2,7236.4c0.8,0,1.4,0,1.9-0.1c-0.4-1.2-0.7-2.5-0.9-3.9c-1-4,2-8,1-11c-7-10-14-26,0-36
					c0.4-0.3,0.7-0.7,0.9-1.2c-1.3-0.4-2.7-1-3.9-1.8c1.2,0.8,2.5,1.4,3.9,1.8c0.9-2.7-2.3-7.6-5-12.4l-4.2,4.3l-4.5-1.6
					c-2,4.7-4.1,9.3-7.8,12.7c1.1,2.3,1.9,4.7,2.6,7.2c2,6,5,12,4,19c-1,4-1,9-3,13c-3.8,6.3-9.5,12-16,15.9c0,0,0.1,0,0.1,0.1
					c10.7,0,21.3-0.4,30.6-4.8C-2710.3,7237.2-2710.2,7236.8-2710.2,7236.4z"/>
				<path fill="#3D738E" d="M-2702.2,7326.4c-0.9,1.7-5.5,2.7-9.3,2.3l0.3,0.5l-4.7,6c-1.1,5.8-4.2,11.2-6.8,16.8
					c2.6,3.5,4.8,5.6,6,5.5c5.5-0.6,14.5-14.1,15.5-16.6c0,0,9,12.9,14,6.2c5-6.7,13.9-26.2,10.5-29.2c-1.9-1.6-3.4-2.4-4.3-2.7
					c-6.2,4-12.5,8-20,9C-2701.2,7324.9-2701.6,7325.7-2702.2,7326.4z"/>
				<path fill="#F0BB17" d="M-2685,7302.4c-0.3,0-0.6,0.1-0.9,0.1c0.2,0,0.4,0.1,0.6,0.1L-2685,7302.4z"/>
				<path fill="#F0BB17" d="M-2689.9,7301.8c-0.1-0.1-0.2-0.3-0.3-0.4c-5-6,2-16-1-22c-6.1-11.4-11.5-22.1-16.1-33.3
					c0.8,7.8-6.1,16.1-6.9,24.3c-9.2-7.4,0.3-21.6,3.4-31.6c-0.1-0.1-0.2-0.3-0.4-0.4c0.1,0.1,0.2,0.3,0.4,0.4
					c0.1-0.4,0.2-0.8,0.3-1.2c-9.3,4.4-19.9,4.7-30.6,4.8c6.1,3.3,8.2,9.3,12.6,14.6c5.5,5.1,8.7,13.4,17.3,15.4c0-2,1-4,2-5
					c2-1,5-1,7,1c6,7,9,14,3,22c-1,1-4,0-7,0c0,1-2,2-1,4c-2.9-2.9-5.3-6-7.7-9.2c-0.1,0.1-0.2,0.2-0.3,0.2c-3.5,2.3-8,0.9-10.6-1.8
					c0.6,0.9,1.2,1.9,1.6,2.8c0,2.1,1,4.2,1.2,6.4c0.3-0.1,0.5-0.2,0.8-0.4c0.6,2.6,1.9,5,3.6,7.4
					C-2709,7298.5-2699.4,7300.1-2689.9,7301.8z"/>
				<path fill="#3E8C58" d="M-2678.6,7308.9l-7.1-6l0.4-0.3c-0.2,0-0.4-0.1-0.6-0.1c-1.7,0.2-3.2,0.1-3.9-0.7
					c-9.6-1.7-19.1-3.3-28.7-2c6.9,9.4,20.2,17,17.6,24.4c7.4-1,13.8-5,20-9c-0.8-0.3-1.2-0.3-1.2-0.3L-2678.6,7308.9z"/>
				<path fill="#F0BB17" d="M-2727.2,7276.4c0.8-0.8,2.8-2.2,4.6-2.3c-2.8-3.9-5.9-7.7-9.7-10.9c-0.9,1.2-1.9,2.2-1.9,3.2
					c-1.5,6.2,3.4,10.5,7.2,15.4C-2727.9,7280.1-2728.1,7278.2-2727.2,7276.4z"/>
				<path fill="#F7D4B7" d="M-2727.2,7276.4c-3,6,6,13,12,9c0.1,0,0.3-0.1,0.3-0.2c-2.6-3.7-5.1-7.4-7.7-11
					C-2724.3,7274.2-2726.4,7275.6-2727.2,7276.4z"/>
				<path fill="#F7D4B7" d="M-2714.2,7270.4c0.7-8.2,7.6-16.5,6.9-24.3c-0.6-1.6-1.3-3.1-1.9-4.7c0.6,1.6,1.2,3.2,1.9,4.7
					c-0.2-2.5-1.3-4.9-3.5-7.3C-2713.9,7248.8-2723.4,7263-2714.2,7270.4z"/>
				<path fill="#3D738E" d="M-2609.5,7294.6c-8-2.5-16-1.3-23.4,1.5l12.3,25.8c0,0,6.4,1.4,10.1-9.6c2.8-8.2,3-12.5,2.9-14.1
					C-2608.6,7297.4-2608.6,7295.8-2609.5,7294.6z"/>
				<path fill="#CC8850" d="M-2593,7320.4l0.6-1l-9.5-30.4c-4.2,1-8.2,0.2-10.1,5c0.8,0.2,1.7,0.4,2.5,0.7c-0.4-0.5-0.9-0.9-1.7-1.2
					c0.8,0.3,1.3,0.7,1.7,1.2c0.8,0.2,1.5,0.5,2.3,0.8c-0.8-0.3-1.5-0.6-2.3-0.8c0.9,1.2,0.9,2.8,2,3.6c0-0.5-0.1-0.8-0.1-0.8
					l0.2,0.9c0.1,0,0.1,0.1,0.2,0.1c-0.1,0-0.1-0.1-0.2-0.1l8.6,34.1c2.6-5,6.5-9.4,9.3-14.2L-2593,7320.4z"/>
				<path fill="#CC8850" d="M-2575.1,7308.2c-1.5,0.6-2.6,0.7-2.6,0.7l-7-24.1l-0.1-0.6c-2.2,0.7-4.4,0.8-6.6,1.5
					c-0.5,1.1-1.1,1.7-1.1,1.7l9.2,26.8l-0.8,0.5C-2579.8,7314.7-2577.1,7311.8-2575.1,7308.2z"/>
				<path fill="#F0E7D8" d="M-2569.9,7305c-1.8,1.7-3.7,2.6-5.2,3.2c-2,3.6-4.7,6.5-8.9,6.5l-5.5,3.5c-2.9,4.9-6.7,9.2-9.3,14.2
					l1.6,6.5c0,0,19.3-9.3,20.2-11.4c0.8-2.1,16.3-13.6,16.8-18.6S-2566.2,7301.6-2569.9,7305z"/>
				<path fill="#3D738E" d="M-2601.9,7288.9l-1-3.2l10.5-7.1c2.5,2.6,1.9,5.3,1.1,7c2.2-0.7,4.4-0.8,6.6-1.5l-1.8-18.1
					c-11,2.7-22.5,9-30.6,6.3c-8-3-6-18-10-28c-0.7,0.3-1.4,0.8-2,1.3v0.7c0,0-0.1,0-0.1,0c-1.2,9.6-5.9,18.3-5.9,28c4,0,8,1,9,3
					c3.4,6.9-2,13-6.8,18.5l0.1,0.2c6.6-2.5,13.7-3.7,20.9-2.1C-2610.1,7289.2-2606.2,7290-2601.9,7288.9z"/>
				<path fill="#70B5B6" d="M-2722.2,7292.4c-9.2,4.2-19.3,7.5-27.7,13.2l4.2,8.1c0,0,14,26.5,22.9,38.3c2.6-5.6,5.7-11.1,6.8-16.8
					l-1.5,2l-13.8-23.8l6.9-5.5l12.8,20.8c3.8,0.4,8.4-0.6,9.3-2.3C-2694.2,7316.4-2719.2,7306.4-2722.2,7292.4z"/>
				<path fill="#A56219" d="M-2649.2,7187.4c0-0.3,0-0.5,0-0.8c-0.3-0.4-0.6-0.9-1-1.2c0.4,0.4,0.7,0.8,1,1.2
					c-0.3-8.6,3.5-14.9,8.4-20.6l-0.7,0.1c0,0,2.5-14.9-1.2-23.6c-6.9-13.5-16.4-26.3-29.5-20.1c-13.7,5.9-5.4,29-15.4,39.3
					C-2675.5,7172-2668.3,7189.3-2649.2,7187.4z"/>
				<path fill="#F0E7D8" d="M-2726.2,7194.4c-2-7-5-14-12-18c-2.6-1.4-5.3-2.6-8-3.7l0.5,2c0,0-18.6-2-30.6,4.5
					c-12,6.5-17.7,21.3-18,32.4s1,21.1,14.3,21.8c1.4,0.1,2.7,0.2,3.8,0.3c-0.1-1.2-0.6-2.4-1.1-3.3c-5-6-10-15-5-23c3-6,6-12,13-16
					c3-1,7-2,10-3c7-1,14-2,21,2c1,1,3,3,4,4c1.9,6.8,2,20.3,12.2,17.3C-2721.7,7205.4-2724.3,7199.9-2726.2,7194.4z"/>
				<path fill="#77470E" d="M-2734.2,7194.4c-1-1-3-3-4-4c-7-4-14-3-21-2c-3,1-7,2-10,3c-7,4-10,10-13,16c-5,8,0,17,5,23
					c0.5,1,1,2.1,1.1,3.3c9.4,1.3,8.9,5.4,9.2,9c0.1,0.8-0.3,1.7-0.9,2.9c15.5,6.6,34-5,42.5-19.2c2-4,2-9,3-13
					c0.1-0.6,0.1-1.2,0.2-1.7C-2732.2,7214.7-2732.2,7201.2-2734.2,7194.4z"/>
				<path fill="#F0E7D8" d="M-2764,7278.4L-2764,7278.4l0.9,0C-2763.5,7278.4-2763.7,7278.4-2764,7278.4z"/>
			</g>
			<g>
				<path d="M-2749.1,7137.5c-0.4-0.4-0.8-0.7-1.2-0.9C-2750.3,7137.1-2749.9,7137.4-2749.1,7137.5z"/>
				<path d="M-2554.2,7252.8c-0.4-0.4-0.9-0.8-1.1-1.3c-2.8-5.5-4.6-6.5-10.6-5.7c-0.7,0.1-1.8-0.3-2.2-0.8
					c-5.9-6.8-11.7-13.7-17.4-20.6c-4.1-4.9-7.3-10.8-14.2-12.5c-1.7-0.4-3.5-0.6-5.1-0.9c1.8-6.6,3.3-12.7-0.6-18.7
					c-0.5-0.8-0.4-2.1-0.2-3.1c1.3-5.1-0.8-8.5-5.8-7.8c-4.5,0.6-8.8,2.3-13.2,3.7c-0.4,0.1-0.4,1.4-0.7,3.2
					c4.3-1.4,7.7-2.7,11.2-3.7c2.2-0.6,5.2-2.7,6.5,0.6c0.4,1-2.5,3.6-4.3,5c-1.3,1-3.3,1.2-5,1.9c-2.1,0.8-4.2,1.7-6.3,2.6
					c2.9,1,5.6,1.4,8.1,0.9c2.4-0.6,4.6-2.2,6.8-3.4c6.3,6.2,2.5,18.3-2.3,22.2c-5.9,4.8-17.7,6.2-24.6-1c-2.9-3-6.7-5.3-10.5-7
					c-6.1-2.8-6.6-4-1.6-8.6c1.9,0.6,3.7,1.2,6.8,2.1c-1.2-5.2-2-9.2-3.2-13.1c-1.3-4.2-2.9-8.2-4-11.2c2.2-1.4,4-2.7,5.9-3.8
					c0.6-0.3,1.4-0.3,2.1-0.5c3.5-0.6,6.9-1.3,10.4-1.7c4.7-0.6,7.5-6,12.9-4.8c0-1.4,0.4-3.1-0.1-4.2c-0.4-0.9-2.2-1.1-3.5-1.6
					c0.1-0.7,0.1-1.7,0.2-3.1c-7.9,0.2-13.2,5.6-19.4,9.7c1.6-9.6-0.1-17.7-4-25.4c-0.4,0.6-0.3,1.2-0.2,1.7
					c2.3,11.1,4.6,22.1-5.8,31c-1.8,1.6-2.3,4.9-3,7.6c-0.4,1.6-0.1,3.5-0.1,5.3c-0.4,0.1-0.8,0.1-1.2,0.2c2.1,2.8,4.1,5.6,6.3,8.6
					c-1.3,0.9-2.5,1.2-3,2c-1.3,2.2-3.4,4.7-3.1,6.9c0.4,3.1,2.5,6.3,6.4,6.5c6.3,0.3,9.5,4.7,13.1,8.8c-1.2,1.6-2,2.7-2.9,3.9
					l0.1-0.1c-1.2,6.5-3.6,13.1-3.3,19.6c0.2,4.4,0.2,8.5-1.1,12.6c-1.8,6.2-3.4,12.4-5.3,19c-1.6,0.2-3.6,1.1-5.2,0.6
					c-3.7-1.1-7.2-2.7-10.6-4.4c-2.2-1.1-5.2-2.4-6.1-4.4c-3-6.5-5.2-13.4-7.7-20c4.7,2.9,9.4,5.8,14.4,8.9c-0.5,3,1.8,6.4,5.3,6.8
					c2.6,0.3,6.4-2.7,7-5.3c0.3-1.3,1-2.7,1.8-3.7c1.9-2.2,3.7-4.3,2-7.4c-1.4-2.6-2.8-5.3-4.4-7.7c-0.8-1.2-2.2-2.5-3.4-2.6
					c-1.2-0.1-3.2,0.8-3.8,1.9c-1.4,2.5-2.9,3.1-5.4,1.7c-5.6-3.1-11.2-6-17-9.2c4.5-1.8,8.9-3.6,13.2-5.3c3-1.2,4.7-4.2,3.1-6.3
					c-3.1-4.3-1.8-8.8-2.4-13.2c-0.4-3.2-0.7-5.9,0.6-9.2c0.7-1.8-0.9-5.2-2.5-7c-3.5-3.9-3.9-6.9-0.6-10.8c0.7-0.9,1.2-2.8,0.7-3.7
					c-1.8-3.7-3.1-8.3-6.1-10.5c-7.8-5.6-16-10.7-26.6-6c-12.8,5.7-19.7,15.9-16.2,30.3c0.6,2.3-0.6,5-1,7.6c-0.3,1.7-1.4,3.6-0.9,5
					c2.8,8.2,1.2,16.7,2.2,25c0.6,4.5,1.3,7.7,7.5,8.1c-2.5,2.2-4,4.1-5.8,4.9c-4.6,1.9-9.4,3.4-14.2,5c0.1,0.4,0.3,0.9,0.4,1.3
					c5.6,1.1,10.3-1.8,16.2-5.1c-2.5,9.1-4.7,17-6.9,24.8c-0.6,0.1-1.3,0.3-1.9,0.4c-2.1-3.3-3.8-7.1-6.4-9.9
					c-3.7-4-8-7.4-11.6-10.6c4.1-4.3,9.7-8.5,13.1-14.1c3.4-5.5,5.5-12.1,4.3-19.1c-0.6-3.9-0.5-7.8-0.9-11.8
					c-0.1-1.3-0.6-2.6-1.3-3.7c-1.3-2.3-2.7-4.6-3.8-6.4c1.9-4.1,3.5-7.7,5.2-11.3c-0.6-0.3-1.2-0.7-1.8-1c-1.7,2.5-3.3,4.9-4.9,7.2
					c-3.9-3.1-7.4-6.5-11.5-8.9c-3.5-2-5.7-4.2-6.6-8.1c-1-4.3-2.3-8.6-3.5-13.1c-0.8,0.5-1.9,1.7-3,1.8c-3,0.3-7,1.3-8.9-0.2
					c-3-2.3,0.3-8.6,4.4-8.7c5.3-0.2,11-3.3,15.7,2.7c1.4,1.8,5.1,2.4,7-1.8c0.8-1.9,3.9-3,6.2-3.8c1.3-0.4,3,0.5,4.6,0.8
					c-0.6,1.6-0.9,3.5-2,4.8c-1.1,1.3-2.9,2.1-4.3,3.1c0.1,0.3,0.3,0.6,0.4,0.9c2.3-0.2,4.6-0.4,6.9-0.6c3.3,6.6,2.4,12.4-3.5,23.1
					c6.1-1.9,11-12.3,9-19c-1-3.2-3.3-6.4-0.8-10c0.4-0.5,0.2-2-0.3-2.5c-4.4-4.9-4-11.8-2.8-16.5c1.5-5.9,0-10.1-1.4-15.2
					c-1.4-5.2-4-4.2-7.3-2.8c-3.4-4.6-8.9-5-11.9-0.5c-4.4,6.6-10,11.7-16.8,15.7c-3,1.8-4.9,4.5-4.2,8.1c0.7,3.9,1.7,7.7,2.6,11.6
					c-2.5,0.7-5.7,4.6-5.1,7.8c0.3,1.8,0.7,4.7,1.7,5.1c4,1.4,8.3,2,13.1,3c1.2,3.5,2.7,7.9,4.1,12.1c-1.2,0.4-1.4,0.6-1.7,0.6
					c-0.7-0.1-1.5-0.2-2.2-0.4c-13-2.9-23.3,3.5-33.5,9.8c-2.8,1.7-5.1,4.9-6.6,8c-2.6,5.2-4.8,10.8-6.3,16.4
					c-0.6,2.3,1.1,5.2,2.1,9.1c-3,5.4,2.5,17.1,10.4,17.6c-4.5-6.5-10.6-12.4-7.2-21.4c0.3-0.7-0.3-1.8-0.2-2.6
					c0.1-1.1,0.6-2.2,0.8-3.3c2-8.7,10.3-13.5,13.5-21.5c0.5-1.3,2.3-2.3,3.7-2.9c3.1-1.4,6.5-2.4,9.6-3.8c9.6-4.3,28.3-1.5,33,11.6
					c0.5,1.5,1.8,2.8,2.3,4.3c1.2,3.3,2.1,6.6,3.1,10c-0.4,0.1-0.9,0.3-1.3,0.4c-0.4-1.1-1-2.1-1.1-3.2c-0.4-4.7-2.2-8.5-5.9-11.6
					c-3-2.5-5.6-5.5-8.7-7.8c-1.3-1-3.6-1.6-5.2-1.3c-3.2,0.6-6,1.7-9.3-0.3c-1.6-1-4.9-2.5-6.2,0.7c-1.3,3.3-3.7,3.5-6.5,3.5
					c-2.9-0.1-4.5,1.2-5.8,3.8c-1.4,2.6-3.5,5-5.7,7.1c-2.7,2.6-5.8,4.5-5.8,9.1c0,3.6-1.2,7.2-1.7,10.8c-1.1,7.3,0.6,10.4,7.5,14.7
					c0.9,0.6,1,2.4,1.8,4.3c-1.9-0.5-2.9-0.7-4.3-1.1c0.1,1.7,0.2,3,0.3,5.2c5.8-3.2,10.9-1.9,15.8,1.3c-2.1,0.3-4.1,0.1-6.1-0.2
					c-0.9-0.1-1.7-0.7-2.5-0.6c-0.4,0.1-1.1,1.4-1,1.7c0.4,0.8,1.2,1.6,2,2c1.5,0.7,3.2,1,5.3,1.6c-1,2.1-1.6,3.8-2.6,5.2
					c-4.9,6.8-6.2,14.9-7.3,22.8c-1.1,7.4-0.7,15-1.2,22.5c-0.1,1.1-1.6,2.9-2.6,3c-9.7,0.8-19.3,1.4-29,1.9
					c-5.2,0.2-10.4-0.1-15.7,0.1c-3.1,0.1-6.1,0.9-9.5,1.5c0.7,1,0.8,1.3,1,1.5c0.5,0.3,1,0.5,1.6,0.7c12,3.4,24,1.1,35.9,0.2
					c3.1-0.2,6.2-0.7,9.3-1.2c1.9-0.3,3.8-1.1,5.8-1.5c0.8-0.2,2.1-0.4,2.3,0c0.5,0.7,1,2.3,0.6,2.7c-1,1.1-2.5,2.4-3.8,2.4
					c-4.6-0.1-5.3,3-5.8,6.4c-0.6,3.7,1.5,5.3,4.7,6.4c1.3,0.5,2.3,2.1,3.3,3.4c1.4,1.7,2.5,4.1,4.3,4.9c1,0.5,3.2-1.5,4.9-2.3
					c2.3,1,5.5,2.1,7.4,1c4.3-2.4,3.6-6.8,2.9-9.2c1.7-3.1,3.5-5.1,3.6-7.1c0.2-4.5-3.7-5.4-7.1-6.9c4.1-0.2,8.6-0.7,11.8,1.1
					c3.2,1.8,5.6,5.7,7.5,9.1c5.7,10.2,10.8,20.8,16.4,31c2.3,4.1,5.1,8.1,8.3,11.6c6,6.7,10.2,6.6,15.4-0.4
					c2.7-3.5,4.5-7.7,6.8-11.6c1.5,1.5,3.2,3.3,5.1,4.9c3.8,3.4,7.6,2.5,9.8-2.1c0.8-1.6,1.5-3.5,2.8-4.5c4.6-3.4,5.8-8.6,7.4-13.5
					c2.3-7,0.7-11.1-4.5-12.2c-1.9-0.4-4-0.1-7-0.1c2.1-2.6,3.7-4.5,5.3-6.4c0.3,0.2,0.6,0.4,0.9,0.6c-0.2,1.2-0.4,2.4-0.9,5
					c2.2-1.1,4.4-1.4,4.7-2.4c2.4-6.5-3.7-6.8-7.3-8.8c3.6-4.4,5.3-4.4,7.7,0c5.1,9.4,10,18.8,15,28.3c3.1,5.8,9.8,7.6,13.3,2.8
					c3.7-5,9.1-6.8,13.9-9.9c1-0.6,1.9-1.4,2.9-2c5-3.2,4.6-8.5,5.1-13.5c-5.6-4.5-6.4-4.5-14.7,0.2c-4.2-6.5-8.4-13.1-12.8-19.9
					c2.7-1.4,4.2-2.2,6.4-3.4c-0.4,5-1.5,10,3.5,12.3c1.6,0.7,4.2-0.9,7.2-1.8c5.3,2.6,8.2,1.2,10.3-5.8c0.4-1.2,0.6-2.6,1.3-3.6
					c3.5-4.8,2.6-9.7-2.7-12.3c-1.9-0.9-4.1-1.3-6.1-1.9c2.1-7.3,1.2-15.4,6.1-21.9c4.8,13.7,9.5,27,14.1,40.2
					c-10.1,0.5-10.1,0.5-11.1,4.9c3,0,5.9,0,9.6,0c-6.1,7-10.5,13.8-8.2,23.1c0.7,2.8,2.2,4.1,4.2,4.3c2.1,0.2,4.9-0.3,6.4-1.7
					c4.1-3.8,5.1-7.5,3.9-10.7c-2.9,3.8-5.8,7.6-8.6,11.3c-4-10.3,4.3-13.6,9.3-19c3.2,11,7,21.5,8.6,32.6c0.4,2.4,2.4,6.1,4.2,6.4
					c2.2,0.4,5.3-1.6,7.4-3.3c4.3-3.5,8.2-7.6,11.6-10.8c1.7,0.3,3.1,1,4.1,0.7c7.6-2.3,10.3-9,12.9-15.5c1-2.5,1.8-5.4-1.3-8
					c-3-2.5-5.6-1.3-8.3-0.3c-2.6,1-5.1,2.2-8.4,3.7c-2.2-7.7-4.3-15-6.4-22.2c2-0.9,3.3-1.4,5.1-2.2c-5-15.1-10-30-14.9-44.5
					c1.6,0.5,4.1,0.6,5.7,1.9c3.3,2.7,6.5,5.7,9.1,9.1c1.5,2,4.8,4,2.5,7.6c-1.6,2.6-3.3,5.7-0.6,8.1c1.9,1.6,5,1.8,7.6,2.7
					c3.3,3,7.8,5.2,11.3,3.8c4.5-1.9,1.9-5.6,2.1-8.6C-2548.8,7260.9-2548.3,7258.2-2554.2,7252.8z M-2761.4,7132.8
					c-0.3-1.3,0.3-3.7,1.3-4.5c5.5-4.4,11.3-8.4,16.9-12.6c1-0.7,1.6-2,2.2-3.2c1.8-3.9,4.4-4.5,7.8-2.1c2.8,2,5.7,3.9,8.3,6.1
					c0.8,0.7,1.2,2.5,1,3.6c-0.2,1-1.6,1.7-2.6,2.7c-0.7-1.9-1-3-1.4-4.1c-1.1,0.4-2.3,0.6-3.2,1.3c-2.7,2.2-5.3,4.5-9,7.7
					c2.1-5.5,8.8-7.2,6.8-13.1c-3.2,3.7-6.4,7.5-10.2,11.8c-1.9-4.5-2.6-4.3-9.5,0.7c2.2,1.6,8.4-2.6,6.5,4.6
					c4.8-1.9,9.3-3.7,13.1-5.2c1.7,1.7,3.2,3.2,4.7,4.7c-2,0.8-19.6,4.5-21.7,5.4c0.4,0.2,0.9,0.5,1.2,0.9c2.5,0.4,8.1-0.7,13.1-1.8
					c4-0.9,7.5-1.8,8.4-1.8c4.4-0.1,3.2,3.2,2.7,6.3c-0.2-0.2-0.3-0.4-0.5-0.6c0.1,0.3,0.2,0.5,0.3,0.8c-5,0-10,0-12,5
					c0,0-0.4,0-0.8,0c0.2,0.1,0.4,0.2,0.6,0.3c-6.5,1.1-7.4,0.5-9.5-4.8c-0.5-1.2-1.2-2.5-2.2-3.4c-0.8-0.1-1.2-0.4-1.2-0.9
					c-0.7-0.4-2.6,1.7-3.9,2.6c-0.4-2-0.8-4.3-1.2-6.6c-0.6,0.1-1.1,0.2-1.7,0.3c0,2.9,0,5.8,0,8.8c-0.3,0.1-0.5,0.1-0.8,0.2
					C-2759.1,7138.9-2760.6,7135.9-2761.4,7132.8z M-2666.8,7240.9c8,4.6,7.9,4.7,14.2-2.7c0.3,2.9,0.5,4.7,0.6,5.7
					c1.8,1.3,3.1,2.3,4.5,3.3c-1.6,1.4-3.1,2.7-4.7,4.1c-0.2-0.2-0.3-0.4-0.5-0.6c-0.1,0.3-0.2,0.6-0.3,0.8
					c-0.4,1.7-0.8,3.5-1.2,5.2c-1.6-1.2-3.3-2.5-4.9-3.7c-1.5-1.2-2.8-2.6-4.3-3.7c-2.4-1.5-4.9-2.8-7.4-4.1
					c-3.2-1.7-6.4-3.4-9.6-5.2c-0.7-0.4-1.3-1.2-1.6-1.9c-0.9-2.2-1.6-4.4-2.7-7.4C-2678.3,7234.5-2672.5,7237.6-2666.8,7240.9z
					 M-2696.9,7182.3c3.1,1.3,5.9-4.6,8.7-0.5c1.8,2.6,4.3,5.9,1,9.4c-0.8,0.3-1.7,0.6-2.5,0.9
					C-2695.9,7191.9-2697.3,7190.1-2696.9,7182.3z M-2709.9,7203.1c-2.8,1.5-5,0.3-5.7-2.2c-0.6-2.1-3.3-5.4,1.9-6.4
					c3-0.6,5.7-2.7,8.7-3.6c2-0.6,4.3-0.1,6,0.6c3.4,1.7,3.6,1.9,7.2,3c3.3,1,10.2-3,9-6.7c-0.9-2.9-1.9-5.8-2.9-8.9
					c2.8,0,5.8-0.9,7.5,0.2c2,1.3,3,4.4,4.4,6.8c-0.4,0.3-0.8,0.5-1.2,0.8c-0.2-0.3-6.1,0.6-7.3,1.7c1,0.9,4.4,1.1,6.6,0.2
					c1-0.4,2.5-0.5,3.5,0c1.7,0.7,4.4,1.8,4.6,3c0.3,1.8-0.8,4.6-2.2,5.6c-2.3,1.6-5.4,2-8.1,2.9c1.6,4,1.7,4,9.7,0.3
					c5.3,9.9-2.9,22.7-14.8,22.8c-6.5,0-10.8,2.7-13.4,8.4c-0.3,0.7-0.3,1.6-0.6,3c3.2-2.1,5.9-3.8,9-5.8c1.7,4.1,3,7.4,4.4,10.8
					c-2.9,1.2-5.7,2.5-8.6,3.6c-2.9,1.1-5.8,2.1-8.9,3.3c-1.6-3.7-3.9-7.7-4.9-12c-0.3-1.6-1-6.7,4.3-6c0.2,0,1.4-2.5,1.1-3.6
					c-1.1-5.6-2.8-11.1-3.7-16.7c-0.4-2.3,0.6-4.9,1.1-8.2C-2705.9,7201.1-2707.9,7202-2709.9,7203.1z M-2716.7,7264.4
					c0.8-4.7,2-9.2,3.1-13.8c0.8-3.3,1.8-6.5,2.9-10.3c2.4,5.1,4.5,9.3,0.5,14.8c-2.5,3.4-2.7,8.6-5.1,13.3
					C-2715.8,7267-2716.9,7265.6-2716.7,7264.4z M-2705.9,7253.3c1.4,4.7,2.7,9,3.7,12.5c-2.6-0.2-5.3-0.3-8.4-0.5
					C-2709.1,7261.8-2707.6,7257.6-2705.9,7253.3z M-2711.5,7274.9c1.5-3.1,2.5-5.2,3.6-7.5c3.2,3.4,6,6.4,9.1,9.6
					c-1.5,0.4-2.9,0.9-5.5,1.7c1.9,1.9,3.6,3.1,4.4,4.7c0.7,1.4,0.3,3.3,0.4,4.8c-2.8-1.2-4.8-2-6.9-2.9c-0.3,2.4-0.6,4.8-1,7.3
					c-0.5,0.1-1,0.3-1.5,0.4c-0.6-1.9-1.2-3.9-1.8-5.8c-0.5-1.8-0.6-4-1.7-5.2c-6-6.3-12.4-12.3-19-18.9c0.2-0.4,0.8-1.6,1.5-3.2
					C-2723.5,7265-2717.6,7269.9-2711.5,7274.9z M-2692.6,7287.8c0,0.8-0.3,1.7-0.5,2.5c-1.2,6.7-1.4,6.9-8.2,6.8
					c-5.6-0.1-11.2,0-16.7-0.4c-1.1-0.1-2.6-1.5-2.9-2.6c-0.7-2.5-0.8-5.1-1.2-7.8c1.9,0.2,4.1,0.5,5.3,0.6c3.4,3,6.2,5.8,9.3,8.1
					c0.4,0.3,2.9-2.4,4.1-4.1c1.9-1.3,5,3.1,6.4-1.4c0.7-2.3,0.7-4.8,1.1-7.2c0.2-1.4,0.5-2.8,0.9-4.9
					C-2691,7281-2692.8,7284.6-2692.6,7287.8z M-2726.3,7278.1c1.6-0.6,2.9-1.5,3.5-1.2c2.1,1.2,4.3,2.5,5.8,4.4
					c0.4,0.5-1,2.9-1.8,4.2c-0.2,0.3-1.8,0.2-2.4-0.3c-0.6-0.4-1.2-1.8-1-2.2C-2719.3,7278.7-2723.7,7279.7-2726.3,7278.1z
					 M-2726.4,7272c-1,1.8-1.8,3.3-2.6,4.8c-4.1-4.1-5.8-9-3.5-10.9c1.7,1.6,3.4,3.2,5.1,4.9
					C-2727.1,7271.1-2726.8,7271.5-2726.4,7272z M-2766.2,7306.2c1.3,0.4,2.3,1.7,3.4,2.6c-1.1,0.6-2.3,1.3-3.4,1.9
					c-1.2,0.6-3.2,0.7-3.6,1.6c-0.5,0.9,0.1,3,1,3.8c3,2.7,1.2,4.5-1.5,7.9c-1.1-3.9-1.8-6.6-2.7-9.6c-4.9,0-3,5.9-6.7,7.6
					c0.4-3.6,0.8-6.9,1.2-11.2c-2.3,1.1-3.5,2-4.8,2.3c-1.4,0.3-2.8,0.1-4.3,0.1c0.7-1.6,1.4-4.6,2.2-4.6c8.1-0.6,6.9-6.5,7.4-11.8
					c0.5-4.8,1.6-9.5,2.3-14.3c0.6-3.8,2.5-5.2,6.3-3.5c-1.1,8.4-2.2,16.9-3.3,25.9C-2770.3,7305.4-2768.1,7305.5-2766.2,7306.2z
					 M-2768.4,7296.7c1.2-6.2,2.2-11.6,3.3-17c0.5-0.1,1-0.1,1.5-0.2c2.1,4.9,4.2,9.7,6.3,14.7
					C-2760.9,7295-2764.2,7295.7-2768.4,7296.7z M-2762.6,7268.2c-0.4-1.2-1.4-2.2-2.1-3.3c-0.4,0.2-0.7,0.4-1.1,0.5
					c-0.4,3-0.9,6-1.3,9.3c-0.7,0-1.6,0-2.5,0c-6.4-0.4-7.9-2.7-5.7-8.8c1.4-3.8,2.2-7.9,3.8-11.6c1.1-2.6,3.2-4.8,4.8-7.1
					c1.5,0.6,2.9,1.1,4.4,1.7c-5.9-7.6-0.5-16.7-4.5-24.6c-1.2,0.5-2.8,0.8-4,1.7c-2.7,2.1-5.2,1.3-6.6-1c-1.2-2-2.1-5.2-1.4-7.1
					c1-2.5,3.9-3,6.9-2c1.3,0.5,3.5,0.2,4.5-0.7c0.8-0.7,0.7-2.9,0.4-4.3c-0.7-3-1.8-5.9-2.8-8.8c-0.3-0.8-1.2-1.4-2-2.4
					c0.6-1.2,1.2-2.9,2.1-4.3c0.5-0.7,1.6-1.3,2.4-1.4c5.6-0.8,11.3-1.3,16.9-2.1c3-0.4,6.1-1.9,8.9-1.5c1.9,0.3,3.8,2.9,4.8,4.9
					c1.3,2.7,1.8,5.8,2.6,8.8c-3.1,1.4-4.9,0.5-6.2-2.7c-0.6-1.5-2.3-2.5-3.6-3.8c-0.4,0.3-0.9,0.5-1.3,0.8c0.6,2.5,1.2,5.1,1.8,7.6
					c0.5,0.1,1,0.2,1.5,0.3c-1.3,0.9-2.6,1.8-4,2.6c0.1,0.1,0.2,0.2,0.4,0.4c3-1,5.9-2.4,8.9-2.9c1.3-0.2,2.9,1.5,4.4,2.3
					c-1.1,1.7-1.9,3.6-3.4,5c-0.8,0.8-2.6,0.4-3.8,0.9c-1.1,0.5-2,1.5-3,2.3c0.2,0.4,0.4,0.8,0.6,1.3c1.8-0.3,3.6-0.8,5.4-0.7
					c1.3,0.1,3.5,0.8,3.7,1.6c1,5.1,1.3,10.3-1.4,15.2c-3.3,6-8.7,7.6-15.1,7.3c-4.4-0.2-7.5,2.6-7.7,6.9c13.1-7.5,16-4.6,26.7,6.6
					c-1.7,2.5-3.4,5-6.1,8.8c-2.7-3.2-5.2-6.2-7.7-9.1c-0.4,0.3-0.8,0.6-1.2,0.9c6.7,11.9,13.4,23.7,20.6,36.6
					c-8.9,3.9-17.4,7.7-26.5,11.6C-2754.9,7291.8-2758.7,7280-2762.6,7268.2z M-2721.2,7350.5c2.6-7.4,5.9-14.5,12.1-19.8
					c0.3-0.2,0.8-0.1,0.9-0.1c-4,7.4-7.9,14.8-11.9,22.3C-2720.2,7352.5-2721.4,7351.3-2721.2,7350.5z M-2718.8,7332.7
					c-3.2-4.8-6.5-9.5-9.3-14.5c-2.1-3.8-1.5-4.8,3.1-8.3c4,6.2,8.1,12,11.4,18.2c0.7,1.2-1.4,4-2.4,6.4
					C-2717.4,7333.7-2718.3,7333.4-2718.8,7332.7z M-2715.2,7355.5c-0.2-10.8,6.8-17.6,13.1-26
					C-2701.2,7338.2-2708.9,7353.1-2715.2,7355.5z M-2700.1,7324.3c-2.7,1.3-5.3,2.6-8.2,3.3c-0.9,0.2-2.6-1.4-3.4-2.5
					c-3.4-5-6.7-10.1-9.9-15.2c-2.1-3.3-4.8-2.2-7.4-0.9c-1.6,0.8-3,1.7-5.4,3c3.5,9.3,9.2,17.2,15.7,25.4c-1.1,2-2.5,4.8-4.4,8.5
					c-1.9-3.1-3.4-5.7-5-8.1c-1.5-2.2-3.3-4.3-4.9-6.5c-0.8-1.1-1.5-2.4-2.3-3.6c-3.7-5.8-7.3-11.8-11.3-17.4
					c-2.3-3.2-1.5-4.7,1.7-6c6.4-2.5,12.8-5.2,19.3-7.6c0.7-0.3,2.2,0.4,2.8,1c6.5,6.8,12.9,13.6,19.3,20.5c1.1,1.2,2.2,2.5,3.1,3.8
					C-2700.1,7322.7-2699.9,7324.2-2700.1,7324.3z M-2678.6,7320.9c0.7,0.6,1.4,1.2,2,1.8c-3.8,7.4-7.4,14.8-11.5,22
					c-0.6,1.1-3.5,1.9-4.9,1.4c-1.6-0.6-3.5-2.2-1.5-4.9c2.3-3.1,4.1-6.8,6.2-10.1c1.6-2.5,3.2-5,5.2-7.2
					C-2681.9,7322.6-2680.1,7321.9-2678.6,7320.9z M-2683.5,7317.4c0.8-0.4,2.1-0.1,3.1-0.1c-8.9,6.5-12,16.2-18,24
					c-0.2-0.1-1.4-0.7-1.5-0.8c0.5-4.2,0.7-7.9,1.4-11.4c0.4-1.7,1.5-3.6,2.9-4.6C-2691.7,7322-2687.6,7319.7-2683.5,7317.4z
					 M-2688.8,7315.9c-2.7,1.7-5.8,3.7-9,5.6c-5.9-6.5-12-13.1-18.8-20.5c9.6-3.2,17.3,0.3,25,3.7c-2.3,3.8-4.2,7.2-6.4,10.9
					c4.9,1.5,4.8-2.6,6.6-4.3c1.8-1.7,3.3-3.6,5.3-5.1C-2686.3,7309.7-2691.6,7311.4-2688.8,7315.9z M-2662.1,7322.4
					c-4-7.9-7.4-14.9-11-21.8c-1.7-3.3,0.3-4.5,3.2-6c3.5,8.1,7.1,16.1,10.4,24.2C-2659.3,7319.4-2660.8,7320.6-2662.1,7322.4z
					 M-2666.9,7292c1.9,0.6,3.4,0.6,3.7,1.2c3.2,7.4,6.2,14.8,9.3,22.2c-0.6,0.3-1.2,0.6-1.8,0.9
					C-2659.3,7308.6-2662.8,7300.9-2666.9,7292z M-2656.1,7330.8c-0.5-5,0.3-8.7,4.9-10.7
					C-2652.7,7323.5-2654.2,7326.8-2656.1,7330.8z M-2645.9,7313.5c-0.5,0.4-0.9,0.8-1.4,1.2c-1-0.7-2.5-1.1-3-2
					c-3.4-6.7-6.6-13.5-9.8-20.3c-0.4-0.8,0-2.6,0.6-2.9c0.8-0.4,2.1,0.1,3.1,0.4c0.4,0.1,0.7,0.9,0.9,1.5
					C-2652.2,7298.7-2649,7306.1-2645.9,7313.5z M-2652.5,7283.7c-13,6.2-25.6,12.2-38.2,18.1c-0.4-0.3-0.8-0.7-1.2-1
					c0.8-4.4,0.9-9.1,2.5-13.2c2.2-6-0.8-9.7-3.9-14c-3.3-4.6-5.8-9.7-8.9-15.1c2.9,0,4.4,0,5.8,0c-0.3-1.2-0.4-2.8-1.1-3.4
					c-0.7-0.6-2.3-0.1-4.2-0.1c-2.2-5.5-4.8-12-7.4-18.5c0.5-0.2,1-0.4,1.5-0.6c2,4.7,4.1,9.5,5.8,13.4c4.1-1.5,8.3-3,12.5-4.5
					c0.4-0.1,0.9-0.2,1.3-0.4c6.7-3,6.7-3,9.8,3.8c2.2,5,4.5,10,6.7,15.1c1.7,4.1,3.9,7.6,8.6,8.9c1.4,0.4,2.6,1.5,4,1.9
					C-2654.4,7275.7-2650.8,7278.1-2652.5,7283.7z M-2636.6,7275.2c9,1.7,9.5,2.1,9.2,7.9c-1.2-0.5-2.1-1-3.1-1.4
					c-1.1-0.4-2.2-0.6-4.5-1.1c1,3.4,1.8,5.8,2.3,8.3c0.2,1.3-0.3,2.7-0.4,4c-0.7-0.1-1.3-0.2-2-0.2c0-1.5,0.4-3.2-0.1-4.6
					c-0.4-1.2-1.7-2.1-2.6-3.2c-0.9,1.1-2,2.1-2.6,3.3c-0.8,1.8-1.3,3.7-1.9,5.6c-0.5-0.1-1.1-0.2-1.6-0.2c0-1.7-0.3-3.5,0.1-5.2
					c0.4-1.9,1.2-3.8,2.1-6.3c-2.7-0.2-4.7-0.3-6.3-0.4c4.3-11.3,8.7-22.7,13.3-34.8c0.2,0,0.9,0,1.7,0c0.6,0,1.2,0.1,1.7,0.1
					C-2633.1,7256.5-2634.8,7265.8-2636.6,7275.2z M-2610.5,7301.8c-3.2,3-6.8,5.6-10.3,8.4c-0.3,0-0.5-0.1-0.8-0.1
					c2.9-4.4,5.8-8.8,8.8-13.1c0.3-0.4,1.9,0.2,2.9,0.3C-2610,7298.8-2609.6,7300.9-2610.5,7301.8z M-2608,7291.3
					c2.5-0.5,4.1-0.9,4.9-1c2.8,9.2,5.5,18.2,8.3,27.1c1.3,4.1-1.1,6.3-4.4,9.9C-2602.2,7314.8-2605,7303.3-2608,7291.3z
					 M-2596.2,7285.5c7.7,8.2,5.6,19.2,11,27.5c-2.5,1.6-4.4,2.9-7.4,4.9c-2.8-9.7-5.3-18.8-8-28.2
					C-2598.4,7288.6-2594.7,7290.4-2596.2,7285.5z M-2564.8,7304.6c0.7-0.2,2,1.3,3.4,2.3c-4.3,2.3-8,4.3-8.9,8.5
					c0.3,0.2,0.7,0.5,1,0.7c-0.4,0.6-0.8,1.2-1.2,1.8c0-0.9,0-1.7,0.2-2.5c-1.6-1.1-3.2-2.1-5.1-3.4
					C-2573.4,7308.1-2569.2,7306.1-2564.8,7304.6z M-2575.8,7316.1c-9.5,4.6-15.4,12.6-21,20.9c-1.5-4.6,1.2-9.8,9.3-18
					C-2584.5,7316-2579.7,7314.8-2575.8,7316.1z M-2585.1,7289.8c1.7,6.3,4,12.4,5.7,18.6c0.3,1.2-0.6,2.7-1,4
					c-1.4-0.7-3.6-1.1-4-2.1c-2.4-7.3-4.3-14.7-6.4-22.1C-2587.3,7286-2586,7286.6-2585.1,7289.8z M-2592.2,7253.2
					c-1.7,1.1-2.8,1.8-4,2.5c3.6,0.1,6.9,3.3,6.8,6.8c0,0.9-1.4,2.3-2.4,2.6c-7.1,1.9-14.3,3.5-21.4,5.1c-1.6,0.4-3.2,0.5-5.7,0.9
					c-1.3-5.9-2.6-11.6-3.6-16.3c5.6-2.3,10.4-4.6,15.3-6.2c3.3-1.1,7.1-2.1,10.4-1.6C-2595.1,7247.3-2593.8,7250.9-2592.2,7253.2z
					 M-2590.3,7237.3c-0.8,0.1-1.7,0.3-2.5,0.4c-0.7-1.2-1.1-3-2.1-3.4c-1.6-0.7-3.5-4.2-5.6-0.3c-0.4,0.6-2.6,0.1-3.9,0.4
					c-7.1,1.6-14.2,3.2-21.3,4.8c0.1,0.6,0.3,1.1,0.4,1.7c1.7-0.5,3.4-1.1,5.1-1.4c5.8-1.1,11.6-2.4,17.4-3.1
					c3.2-0.4,6.7,3.7,6.3,6.9c-0.1,0.8-1.5,1.9-2.3,2c-6.1,0.5-11.4,3-16.7,5.7c-2.2,1.1-5.2,0.6-7.9,0.8c-1.3-4.2-2.5-8-3.7-11.9
					c-0.3,0-0.5-0.1-0.8-0.1c-0.4,1.4-0.8,2.8-1.3,4.3c-2.4-0.3-4.9-0.6-8-1.1c2.1-3.6-0.3-9.2,6.1-10.3c-0.9,0-1.8,0.1-4.2,0.2
					c2.2-4,3.9-7.2,5.8-10.4c0.3-0.5,1.3-0.8,1.9-0.7c7.2,1.3,12.7-2.9,18.3-5.9c5.2-2.8,9.4-2.9,13.1,1.6c0.7,0.9,1.5,1.8,2.8,3.4
					c-2.9,1.3-5.5,2.5-8.2,3.8c6-2.2,11.8-2.9,14.2,4.4C-2586.7,7231.2-2589.3,7234.5-2590.3,7237.3z M-2561.9,7262.6
					c-0.4,2.2,1.3,4.8,1.3,7.7c-1.4-1.7-3.3-3.3-4.1-5.3c-1.4-3.4-3-3.5-5.7-1.5c-1.1,0.8-2.6,1-4.2,1.6c-0.1-1.6-0.3-2-0.2-2.2
					c4.6-7.6,4.4-9.6-2.5-16c-3.4-3.2-7.2-6-10.8-9.1c3.6-4.8,4.3-4.9,8.5-0.4c3.4,3.7,6.7,7.5,10,11.4c0.7,0.8,0.8,2.2,1.2,3.4
					c1.9-1.3,3.5-3,5.4-3.4c1-0.2,2.5,1.6,4.2,2.7c-1.6,1.3-2.7,2.3-3.8,3.2c2.4,1.3,4.8,2.5,6.4,3.4
					C-2558.6,7259.9-2561.6,7261-2561.9,7262.6z"/>
				<path d="M-2569.3,7316.1c-0.3-0.2-0.7-0.5-1-0.7c-0.2,0.7-0.2,1.6-0.2,2.5C-2570.1,7317.3-2569.7,7316.7-2569.3,7316.1z"/>
				<path d="M-2577,7293.3c2.2-0.8,4.4-2,6.7-2.2c6.7-0.6,13.4-0.9,20.1-1.1c13.5-0.4,26.9-0.5,40.4-0.9c10.3-0.2,20.7-1.1,31-0.8
					c14.4,0.4,28.8,1.8,43.2,2.5c11,0.5,22,0.7,33,0.9c3.1,0,6.2-0.8,9.4-0.8c9.2-0.1,18.4,0.3,27.6-0.1c11.9-0.5,23.8-1.9,35.6-2.5
					c7.9-0.4,15.8,0.2,23.6-0.2c11-0.5,21.9-2,32.8-2.2c21.6-0.4,43.5-2.5,64.8,0.2c24.9,3.1,49.7,2.5,74.6,3
					c17.9,0.4,35.8,0.3,53.7,1c15.3,0.6,30.7,2.2,46,3.2c6.1,0.4,12.2,0.7,18.3,1c20.7,1.2,41.4,2.5,62.1,3.8
					c1.8,0.1,3.6,0.4,5.2,1.1c0.8,0.3,1.3,1.7,1.9,2.5c-0.9,0.6-1.7,1.6-2.6,1.7c-5.9,0.1-11.8-0.2-17.7,0
					c-6.1,0.3-12.2,1.5-18.4,1.4c-5.9-0.1-11.8-1.1-17.6-1.9c-11.1-1.5-22.1-3.7-33.2-4.6c-7.6-0.6-15.3,0.7-23,0.6
					c-3.8,0-7.6-1.6-11.4-1.8c-8.3-0.4-16.6-0.4-24.9-0.4c-10.6,0-21.2,0.3-31.7,0.3c-4.9,0-9.8-0.2-14.7-0.6
					c-18-1.6-35.9-3.3-53.9-4.9c-7.1-0.6-14.3-1-21.4-1.3c-10.3-0.4-20.6-1.1-30.9-0.9c-11.3,0.3-22.6,1-33.8,2.7
					c-5.9,0.9-11.6,1-17.4,1c-10.2,0-20.5,1.1-30.7,1.4c-11.6,0.3-23.3-0.1-34.9,0.2c-6.6,0.2-13.3,1.1-19.9,1.5
					c-4,0.3-8.1,0.3-12.1,0.2c-6.3-0.2-12.7-0.6-19-0.7c-9.2-0.2-18.3,0-27.5-0.2c-7.4-0.2-14.8-0.8-22.3-1.1
					c-2.4-0.1-4.7-0.1-7.1-0.1c-10.8-0.4-21.7-1-32.5-1.1c-6.9-0.1-13.7,0.6-20.6,0.7c-9.6,0.1-19.1-0.2-28.7,0.1
					c-6.5,0.2-12.9,1-19.4,1.5c-0.8,0.1-1.7-0.3-2.5-0.4C-2576.7,7294.3-2576.8,7293.8-2577,7293.3z"/>
				<path d="M-2709.2,7157c0-2.2-0.9-5,0.2-6.3c2.7-3.3,2-6.9,2.2-10.5c0.1-1.4,0.4-3,1.2-4.1c2.6-3.6,5.6-6.9,8.7-10.9
					c0.4,0.2,1.6,0.6,3.4,1.3c-2-7.9,6.2-5.2,8-9.3c0.4,0.2,0.7,0.4,1.1,0.7c-0.7,1.3-1.2,2.9-2.2,3.9c-2.4,2.5-4.5,4.5-3.4,8.7
					c0.5,1.9-2.1,4.5-3.1,6.9c-1.6,3.7-3.1,7.6-4.7,11.3c-0.5,1.2-1.2,2.3-1.9,3.5c-0.7-1.2-2-2.4-1.9-3.6c0.1-1.9,1-3.8,1.8-5.7
					c1-2.4,2-4.8,3.2-7.5c-7.4,1.9-8.8,4.1-7.4,10.4c0.1,0.3,0.5,0.6,0.4,0.8c-1.3,3.5-2.6,6.9-4,10.4
					C-2708.2,7157.1-2708.7,7157-2709.2,7157z"/>
				<path d="M-2667.6,7155.7c6.6-2.7,12.9-3.1,19.5-1.4c2.9,0.7,3.1,1.9,1.1,3.9c-0.7,0.7-1.3,1.6-1.9,2.4
					c-6.3,7.7-13.5,6.7-17.4-2.5C-2666.6,7157.4-2667,7156.8-2667.6,7155.7z"/>
				<path fill="#FFFFFF" d="M-2086.9,7376.4c16.3-6.1,32.5-12.3,48.5-18.3c-3.4,2.3-7.1,5.2-11.2,7.4c-6.7,3.7-13.4,7.6-20.5,10.4
					c-3.6,1.4-8.1,0.9-12.2,1c-1.7,0-3.4-0.7-5.1-1.1C-2087.2,7375.9-2087.1,7376.1-2086.9,7376.4z"/>
				<path d="M-2730.7,7170.8c-5.5-0.3-8.4-2.2-9.1-5.9c-0.8-3.7,2.6-4.5,5.3-5.2c2.3-0.6,4.7-1,7-0.9c1.7,0.1,4,0.8,4.8,2
					c0.7,1,0.2,3.8-0.7,4.7C-2725.9,7167.9-2728.9,7169.6-2730.7,7170.8z"/>
				<path d="M-2648.4,7135c-3.3,0.9-6.7,1.7-9.9,2.7c-1.2,0.4-2.3,1.4-3.5,1.7c-0.7,0.2-1.7-0.4-2.6-0.7c0.3-0.8,0.4-2.1,0.9-2.3
					c3.8-1.5,7.6-3.3,11.6-3.8c1.9-0.3,4.9,1.6,6,3.4c0.8,1.4,0,4.4-1,6.3c-2.4,4.6-7.4,5.6-11.8,7.1c-0.5,0.2-1.5-1-2.3-1.5
					c0.6-0.8,1.1-1.9,2-2.5c3-1.9,6.1-3.4,9-5.4c1.1-0.7,1.7-2.2,2.5-3.4C-2647.8,7136.1-2648.1,7135.5-2648.4,7135z"/>
				<path fill="#FFFFFF" d="M-2136.7,7231.3c-126-0.4-252.5,3.7-378.2,0.2c0-0.5,0.1-1,0.1-1.5c126.7,0,253.4,0,380,0
					C-2135.4,7230.3-2136,7230.8-2136.7,7231.3z"/>
				<path fill="#FFFFFF" d="M-2539.3,7149.8c44.4-0.6,80.9-0.3,112.7-1.7c45.6-2.1,88.5-1.6,133.8-0.6c61.6,1.4,123.8,2.5,185.6,4.1
					C-2247.9,7151-2388.6,7150.4-2539.3,7149.8z"/>
				<path fill="#FFFFFF" d="M-2040.4,7335.6c-11.9,14.6-27.7,22.6-45.4,27.6C-2069.2,7356.4-2054.2,7347-2040.4,7335.6z"/>
				<path fill="#FFFFFF" d="M-2041.7,7079c-15.9-7.2-31.7-14.3-47.3-21.3c4,0.8,8.7,1.4,13.1,2.7c7.4,2.1,14.8,4.1,21.9,7.2
					c3.6,1.5,6.3,5.1,9.3,7.9c1.2,1.2,1.9,2.9,2.8,4.4C-2041.8,7079.5-2041.7,7079.2-2041.7,7079z"/>
				<path fill="#FFFFFF" d="M-2103.4,7074.9c18.7-1.9,35.6,3.6,51.6,12.5C-2068.3,7080.5-2085.6,7076.6-2103.4,7074.9z"/>
				<path fill="#FFFFFF" d="M-2095.6,7173.6c-133.3,0-266.6,0-399.9,0c0,0-0.1-0.1-0.1-0.1c133.1-0.7,266.3-1.4,399.4-2
					C-2096,7172.1-2095.8,7172.8-2095.6,7173.6z"/>
				<path fill="#FFFFFF" d="M-2113,7192.1c-35.8,4.9-311.1,4-370.2,0C-2365.8,7192.1-2242.4,7192.1-2113,7192.1z"/>
				<path fill="#FFFFFF" d="M-2536.6,7329.1c13.7-0.5,27.4-1.1,41.1-1.6c0,0.6,0,1.1,0.1,1.7c-13.7,0.6-27.3,3.3-41.1,2
					C-2536.6,7330.5-2536.6,7329.8-2536.6,7329.1z"/>
				<path d="M-2610.4,7202.9c-2.1,1.5-4,2.9-6,4.3c-3.2,2.2-7.4,1.9-9.7-1.2c-0.7-1-0.2-4.4,0.1-4.5c4.2-0.6,8.5-0.9,12.7-1.2
					C-2612.7,7200.3-2612.2,7201.3-2610.4,7202.9z"/>
				<path d="M-2641.7,7116.1c-2.3-0.3-5.3,0.3-6.8-1c-3.7-3.2-7.2-0.6-10.6-0.3c-2.7,0.2-4.4,1.2-7-1.1c-1.8-1.6-5.8-0.8-8.8-1
					c-1-0.1-2,0.2-3.6,0.3c2.5-3.8,7-5,9.6-3c2.7,2.1,5.2,2.9,9,2.4c6.1-0.9,12.5-0.4,18.4,2.2
					C-2641.6,7115-2641.6,7115.5-2641.7,7116.1z"/>
				<path d="M-2686.2,7133.4c0.1,0.1,1.1,0.9,1.6,1.3c-1.9,6.3-3.6,12.1-5.6,18.8c-2.8-6.1,3.2-26.9,8.6-32c0.4,0.2,0.7,0.4,1.1,0.5
					C-2682.3,7125.6-2684,7129.1-2686.2,7133.4z"/>
				<path fill="#FFFFFF" d="M-2140.7,7257.5c-27.7,3.1-314.5,2.9-340,0C-2367.2,7257.5-2257.2,7257.5-2140.7,7257.5z"/>
				<path fill="#FFFFFF" d="M-2154.1,7211.6c-5.2,0.6-9.3,1.1-15.3,1.9c11.9,0.6,23.3,1.1,34.6,1.6c-0.2,0.3-0.4,0.5-0.6,0.8
					c-110.1-1-220.2-2-330.2-3c0.3-0.4,0.6-0.8,0.9-1.3C-2362.5,7211.6-2260.3,7211.6-2154.1,7211.6z"/>
				<path fill="#FFFFFF" d="M-2495.6,7120.7c128.3-1.8,258.1,0.6,387.4-0.3C-2235.6,7125.5-2365.7,7121.3-2495.6,7120.7z"/>
				<path d="M-2631.4,7137.9c-3.8,0.1-12.5-6.6-14.2-11.7c3.7,1.5,6.8,2.7,9.9,3.9C-2632.2,7131.5-2630.1,7133.8-2631.4,7137.9z"/>
				<path d="M-2647.9,7132.4c-2.7-2.2-5.1-4.9-8.2-6.6c-4.3-2.3-9-3.9-13.6-5.7c-1.1-0.4-2.4-0.3-4.5-0.4
					C-2666.9,7115.6-2655.2,7121.1-2647.9,7132.4z"/>
				<path d="M-2623.5,7147.6c-2.2,0.2-4.4,0.4-6.9,0.6c0.1-1.4,0.1-2.4,0.2-3.5c-5.2,0.3-9.3-1.4-10.5-7.8
					c5.8,3.2,11.6,6.3,17.5,9.5C-2623.3,7146.8-2623.4,7147.2-2623.5,7147.6z"/>
				<path d="M-2675.7,7122.4c-2.3,8.2-4.7,16.4-7,24.6c-0.4,0-0.7,0-1.1-0.1c-0.2-0.9-0.9-2.1-0.5-2.6c4.9-6.6,0.6-16.6,7.2-22.5
					C-2676.6,7122-2676.1,7122.2-2675.7,7122.4z"/>
				<path d="M-2636.3,7123.3c1.9,1.5,3.7,3,5.6,4.5c-0.4,0.5-0.9,1-1.3,1.6c-2.1-1.1-4.1-2.3-6.2-3.3c-2.9-1.4-6-2.4-8.9-3.9
					c-1.1-0.5-1.7-1.9-2.6-2.8c0.2-0.3,0.5-0.7,0.7-1c3.7,1.2,7.4,2.4,11.2,3.6C-2637.3,7122.4-2636.8,7122.9-2636.3,7123.3z"/>
				<path fill="#FFFFFF" d="M-2607.6,7090.1c141.2-0.5,282.4-1.1,423.6-1.6c0.2,0.4,0.4,0.8,0.6,1.2c-141,0.5-281.9,0.9-422.9,1.4
					C-2606.7,7090.7-2607.2,7090.4-2607.6,7090.1z"/>
				<path d="M-2661.4,7216.5c5.1,3,5.4,9.4,9.5,13.4C-2655.7,7231-2660.4,7224.6-2661.4,7216.5z"/>
				<path d="M-2636.8,7222.5c-5.3,4.5-13.1,6.2-16.1,3.3c4.9-1.7,9.6-3.3,14.5-4.8c0.3-0.1,1.1,1.1,1.6,1.6
					C-2636.9,7222.6-2636.8,7222.5-2636.8,7222.5z"/>
				<path fill="#FFFFFF" d="M-2464.3,7274.1c121-0.4,242-0.8,368.7-1.3C-2132.3,7277.3-2338.9,7278.2-2464.3,7274.1z"/>
				<path d="M-2636.3,7123.3c-0.5-0.5-1-0.9-1.5-1.4c0.8-5.1,3.9-0.9,5.9-1.3c1.5-0.3,3.2,1,4.9,1.3c3.2,0.6,3.9,2.3,2.1,6.3
					c-0.1-1.6-0.2-2.7-0.2-3.7C-2628.9,7124.2-2632.6,7123.7-2636.3,7123.3z"/>
				<path fill="#FFFFFF" d="M-2334.1,7330.7c51.6-0.7,96.3-1.5,141.4-1.9c8.6-0.1,22,0.8,27.2,1.5c2.4,0.3-8.6,1.7-15.8,1.9
					C-2231.3,7333-2282.5,7334-2334.1,7330.7z"/>
				<path fill="#FFFFFF" d="M-2434.6,7243c110.2-0.3,220.5-0.6,331-0.9C-2121.1,7245.6-2208.7,7246.1-2434.6,7243z"/>
				<path fill="#FFFFFF" d="M-2136.7,7331.3c-126-0.4-252.5,3.7-378.2,0.2c0-0.5,0.1-1,0.1-1.5c126.7,0,253.4,0,380,0
					C-2135.4,7330.3-2136,7330.8-2136.7,7331.3z"/>
				<path fill="#FFFFFF" d="M-2140.7,7357.5c-27.7,3.1-314.5,2.9-340,0C-2367.2,7357.5-2257.2,7357.5-2140.7,7357.5z"/>
				<path fill="#FFFFFF" d="M-2154.1,7311.6c-5.2,0.6-9.3,1.1-15.3,1.9c11.9,0.6,23.3,1.1,34.6,1.6c-0.2,0.3-0.4,0.5-0.6,0.8
					c-110.1-1-220.2-2-330.2-3c0.3-0.4,0.6-0.8,0.9-1.3C-2362.5,7311.6-2260.3,7311.6-2154.1,7311.6z"/>
				<path fill="#FFFFFF" d="M-2434.6,7344c110.2-0.3,220.5-0.6,331-0.9C-2121.1,7346.6-2208.7,7347.1-2434.6,7344z"/>
				<path d="M-2667.1,7183.1c2.9-1.8,10.5,0.7,11.3,2.5c0.2,0.4,0.2,1.1,0,1.2c-0.6,0.3-1.4,0.8-1.9,0.6
					C-2660.9,7186.1-2664,7184.6-2667.1,7183.1z"/>
				<path fill="#FFFFFF" d="M-2576.3,7071.5c149.5-0.5,299-1,448.5-1.5c-1,0.4-1.9,0.8-2.9,1.2c-147.8,0.5-295.6,1.1-443.4,1.6
					C-2574.8,7072.4-2575.6,7071.9-2576.3,7071.5z"/>
				<path d="M-2615.2,7179.2c-2-4.1-4-8.2-6-12.3c0.6-0.3,1.1-0.5,1.7-0.8c1.9,4.1,3.8,8.3,5.8,12.4
					C-2614.2,7178.8-2614.7,7179-2615.2,7179.2z"/>
				<path fill="#FFFFFF" d="M-2530.6,7138.3c144.5,0,289,0,433.4,0c0.6,0.1,1.1,0.2,1.7,0.3c-144.7,0-289.4,0-434.2,0
					C-2529.9,7138.5-2530.2,7138.4-2530.6,7138.3z"/>
				<path fill="#FFFFFF" d="M-2146.2,7106.6c-123.4-0.3-246.7-0.6-370-0.8c0.3-0.1,0.6-0.3,0.9-0.4c123.2,0,246.3,0,369.5,0
					C-2146,7105.8-2146.1,7106.2-2146.2,7106.6z"/>
				<path d="M-2753.9,7223.7c4.8,0,9-0.2,13.3,0.1c1.2,0.1,2.5,1.7,3.4,2.9c0.2,0.3-1.3,1.8-2,2.7
					C-2743.2,7234.7-2748.9,7233.5-2753.9,7223.7z"/>
				<path d="M-2751.6,7208c-3.5-0.3-6.5-4.2-5.6-6.6c0.2-0.6,1.1-1.4,1.4-1.3c1.1,0.3,2.6,0.7,2.9,1.5
					C-2752.1,7203.6-2752,7205.8-2751.6,7208z"/>
				<path d="M-2678.3,7205.6c5-0.8,3.7,3.8,4.4,6.3c0.7,2.5-3.2,6-5.9,5.9c-4-0.1-7.3-3.1-7.3-6.7
					C-2687.2,7207.5-2684.1,7205.6-2678.3,7205.6z"/>

					<ellipse transform="matrix(-0.2556 -0.9668 0.9668 -0.2556 -10236.418 6384.5986)" cx="-2660.2" cy="7133.2" rx="3.8" ry="2.2"/>

					<ellipse transform="matrix(-0.2556 -0.9668 0.9668 -0.2556 -10251.875 6378.6978)" cx="-2670.2" cy="7136.2" rx="3.8" ry="2.2"/>

					<ellipse transform="matrix(-0.2553 -0.9669 0.9669 -0.2553 -10325.9219 6322.1294)" cx="-2728.3" cy="7137.6" rx="2.8" ry="1.6"/>

					<ellipse transform="matrix(-0.2553 -0.9669 0.9669 -0.2553 -10342.6406 6315.4067)" cx="-2739.2" cy="7140.7" rx="2.8" ry="1.6"/>
				<polygon points="-2732.9,7142.6 -2737.3,7134.4 -2735.1,7134.4 -2731.1,7142.6 				"/>
				<ellipse transform="matrix(-0.294 -0.9558 0.9558 -0.294 -10349.5801 6729.1138)" cx="-2689.6" cy="7186.9" rx="3.4" ry="1.7"/>
				<ellipse transform="matrix(-0.294 -0.9558 0.9558 -0.294 -10272.6172 6781.9648)" cx="-2631.6" cy="7184.9" rx="3.4" ry="1.7"/>
				<ellipse transform="matrix(-0.294 -0.9558 0.9558 -0.294 -10254.5605 6787.3032)" cx="-2620.6" cy="7180.9" rx="3.4" ry="1.7"/>
				<ellipse transform="matrix(-0.294 -0.9558 0.9558 -0.294 -10332.4785 6735.7461)" cx="-2678.6" cy="7183.9" rx="3.4" ry="1.7"/>
			</g>
		</g>
	</g>
</g>
</svg>
